<?xml version="1.0" encoding="utf-8"?>
<!-- Generator: Adobe Illustrator 15.0.0, SVG Export Plug-In  -->
<!DOCTYPE svg PUBLIC "-//W3C//DTD SVG 1.1//EN" "http://www.w3.org/Graphics/SVG/1.1/DTD/svg11.dtd" [
	<!ENTITY ns_flows "http://ns.adobe.com/Flows/1.0/">
]>
<svg version="1.1"
	 xmlns="http://www.w3.org/2000/svg" xmlns:xlink="http://www.w3.org/1999/xlink" xmlns:a="http://ns.adobe.com/AdobeSVGViewerExtensions/3.0/"
	 x="0px" y="0px" width="100px" height="100px" viewBox="-0.025 -2.083 100 100" enable-background="new -0.025 -2.083 100 100"
	 xml:space="preserve">
<defs>
</defs>
<path fill="#FAEE49" d="M55.496,61.256l-5.43,3.29c-0.275,0.164-0.603,0.275-0.988,0.275c-1.258,0-3.51-2.577-3.51-6.964V43.764
	c0-0.66-0.326-1.7-1.204-1.7c-0.11,0-0.385,0.11-0.768,0.33l-2.797,1.809c-0.439,0.275-0.66,0.824-0.66,1.538l0.275,12.773
	c0,1.156,0.497,1.923,1.372,2.582l0.439,0.323c0.274,0.168,0.384,0.386,0.384,0.66c0,0.276-0.219,0.495-0.659,0.714l-3.729,1.699
	c-0.331,0.166-0.657,0.219-0.932,0.219c-1.261,0-2.469-2.85-2.795-6.197l-1.483-14.417c-0.108-1.154-0.162-1.703-0.877-1.703
	c-0.054,0-0.219,0.111-0.491,0.329l-2.414,1.809c-0.439,0.33-0.603,0.879-0.603,1.534v12.396c0,0.821,0.164,1.862,1.043,2.469
	l0.383,0.271c0.331,0.275,0.493,0.497,0.493,0.716c0,0.328-0.162,0.548-0.438,0.657l-3.838,1.756
	c-0.277,0.109-0.549,0.217-0.822,0.217c-0.276,0-0.603-0.055-0.936-0.217l-3.672-1.7c-0.329-0.165-0.495-0.44-0.495-0.713
	c0-0.274,0.112-0.498,0.331-0.66l0.44-0.326c0.489-0.439,1.148-1.098,1.148-2.469V46.009c0-0.654-0.603-2.026-2.192-2.026H18.48
	c-0.493,0-0.711-0.271-0.711-0.768c0-0.218,0.055-0.381,0.218-0.492l3.95-3.347c0.491-0.384,0.876-0.602,1.205-0.602
	c0.329,0,0.66,0.162,1.042,0.494l3.837,3.344l7.018-3.62c0.333-0.163,0.604-0.274,0.826-0.274c0.218,0,0.713,0.44,1.535,1.318
	l2.357,2.413l5.375-3.348c0.383-0.273,0.822-0.384,1.205-0.384c0.33,0,0.823,0.218,1.426,0.606c0,0,2.522,1.862,3.675,1.862
	c1.149,0,1.699,0.275,1.699,0.77c0,0.93-1.371,2.246-1.371,3.288l0.163,12.12c0,1.097-0.053,3.565,0.824,3.565
	c1.096,0,1.919-0.936,2.357-0.936c0.219,0,0.658,0.441,0.658,0.821C55.769,60.982,55.658,61.148,55.496,61.256z"/>
<path fill="#FAEE49" d="M76.051,60.379c-4.168,1.537-6.691,3.455-7.514,4.06c-0.271,0.219-0.548,0.219-0.712,0.219
	c-0.329,0-0.823-0.328-1.481-0.933c-2.85-2.63-4.879-3.234-7.236-3.234c-1.921,0-2.141-0.44-2.141-0.821
	c0-0.387,0.439-0.604,1.262-1.1c1.314-0.822,1.371-2.141,1.371-3.67V35.812c0-1.259-0.219-2.246-0.768-2.792l-2.303-2.363
	c-0.165-0.163-0.274-0.437-0.274-0.711c0-0.549,0.438-1.096,1.207-0.933l3.619,0.659l5.594-1.644c0.055,0,0.164,0,0.219,0
	c0.493,0,0.876,0.381,0.876,0.878c0,0.219-0.055,0.437-0.273,0.656c-1.042,0.932-1.535,1.373-1.535,2.469l0.057,8.937
	c0,0.437,0.604,0.988,1.589,0.493l4.825-2.359c0.605-0.219,1.148-0.328,1.533-0.328c1.812,0,4.058,3.124,4.058,6.362v12.773
	C78.023,59.612,77.75,59.725,76.051,60.379z M70.842,43.874c0-1.262-0.111-1.699-0.713-1.699c-0.111,0-0.33,0-0.602,0.108
	l-3.29,1.536c-0.606,0.278-0.989,0.876-0.989,1.537v12.833c0,0.543,0.383,1.313,1.481,1.536l2.194,0.491
	c0.163,0.057,0.546,0.107,0.932,0.107c0.329,0,0.986-0.387,0.986-1.698V43.874z"/>
<path fill="#FAEE49" d="M65.454,95.106H34.548L9.55,76.941L0,47.553l9.55-29.392L34.548,0h30.905l25,18.162L100,47.553
	l-9.547,29.388L65.454,95.106z M35.912,90.91h28.179L86.885,74.35l8.704-26.796l-8.704-26.798L64.091,4.195H35.912l-22.794,16.56
	L4.411,47.553l8.707,26.796L35.912,90.91z"/>
</svg>
