<?xml version="1.0" encoding="utf-8"?>
<!-- Generator: Adobe Illustrator 18.1.1, SVG Export Plug-In . SVG Version: 6.00 Build 0)  -->
<!DOCTYPE svg PUBLIC "-//W3C//DTD SVG 1.1//EN" "http://www.w3.org/Graphics/SVG/1.1/DTD/svg11.dtd">
<svg version="1.1" id="Layer_1" xmlns="http://www.w3.org/2000/svg" xmlns:xlink="http://www.w3.org/1999/xlink" x="0px" y="0px"
	 viewBox="0 0 228.4 28.8" enable-background="new 0 0 228.4 28.8" xml:space="preserve">
<g>
	<g>
		<path fill="#3D3D3E" d="M63.2,19.1c0,0.1,0,0.1-0.1,0.2l-1.3,0.9c-0.1,0.1-0.2,0.1-0.3,0.1c-0.3,0-0.5-0.3-0.7-0.8
			c-0.2-0.5-0.3-1.1-0.3-1.8l0-5.1c0-0.4-0.2-0.6-0.7-0.6c-0.1,0-0.2,0-0.4,0.1l-1.5,0.7c-0.3,0.1-0.4,0.3-0.4,0.6l0.1,4.7
			c0,0.4,0.1,0.7,0.4,0.9l0.1,0.1c0.1,0.1,0.1,0.1,0.1,0.2c0,0.1,0,0.2-0.1,0.3l-0.9,0.6c-0.1,0.1-0.2,0.1-0.2,0.1
			c-0.3,0-0.5-0.8-0.7-2.3l-0.4-5.3c0-0.4-0.3-0.6-0.7-0.6c-0.1,0-0.2,0-0.4,0.1l-1.3,0.7c-0.2,0.1-0.4,0.3-0.4,0.6v4.5
			c0,0.4,0.1,0.7,0.3,0.9l0.1,0.1c0.1,0.1,0.1,0.2,0.1,0.3c0,0.1,0,0.2-0.1,0.2l-0.9,0.6c-0.1,0.1-0.2,0.1-0.2,0.1
			c-0.1,0-0.1,0-0.2-0.1l-0.9-0.6c-0.1-0.1-0.1-0.2-0.1-0.3c0-0.1,0-0.2,0.1-0.2l0.1-0.1c0.2-0.2,0.3-0.5,0.3-0.9v-4.5
			c0-0.2-0.1-0.4-0.2-0.5c-0.1-0.1-0.3-0.2-0.5-0.2h-0.5c-0.2,0-0.3-0.1-0.3-0.3c0-0.1,0-0.1,0.1-0.2l1.3-1.2
			c0.1-0.1,0.3-0.2,0.4-0.2c0.1,0,0.3,0.2,0.6,0.5l0.9,0.9l0.6-0.2l2.1-1.1c0.1-0.1,0.2-0.1,0.3-0.1c0.1,0,0.3,0.2,0.6,0.5l0.9,0.9
			l2-1.2c0.1-0.1,0.3-0.1,0.4-0.1c0.1,0,0.2,0,0.2,0c0.2,0.2,0.4,0.3,0.6,0.5c0.3,0.2,0.5,0.4,0.7,0.4c0.3,0,0.5,0.1,0.5,0.3
			c0,0.1-0.1,0.3-0.2,0.6c-0.1,0.3-0.2,0.5-0.2,0.6l0,4.6c0,0.9,0.2,1.3,0.6,1.3c0.1,0,0.3-0.1,0.6-0.2
			C63.2,18.8,63.2,18.9,63.2,19.1z"/>
		<path fill="#3D3D3E" d="M71.5,18.8c0,0.1,0,0.2-0.1,0.2c-0.4,0.2-0.9,0.6-1.5,1c-0.1,0.1-0.2,0.1-0.2,0.1c-0.1,0-0.2,0-0.2-0.1
			l-1.3-1.4l-1.9,1.4c-0.1,0.1-0.1,0.1-0.2,0.1c-0.1,0-0.2,0-0.2-0.1l-1.7-1.3c-0.1-0.1-0.1-0.2-0.1-0.3c0-0.1,0-0.2,0.1-0.2
			l0.1-0.1c0.2-0.2,0.3-0.5,0.3-0.9V16c0-0.1,0-0.3-0.1-0.4c0-0.2-0.1-0.3-0.1-0.4c0-0.3,0.1-0.5,0.2-0.6L66,14c0.1,0,0.1,0,0.2,0
			c0.2,0,0.3,0.1,0.3,0.3c0,0.1-0.1,0.2-0.2,0.3c-0.2,0.2-0.3,0.4-0.4,0.5s-0.1,0.3-0.1,0.6V18c0,0.2,0.1,0.4,0.3,0.5l0.3,0.2
			c0.1,0.1,0.1,0.1,0.2,0.1c0.1,0,0.1,0,0.2-0.1l1-0.6c0.3-0.1,0.4-0.3,0.4-0.6v-4.2c0-0.5-0.2-0.9-0.7-1l-2.5-1.1
			c-0.2-0.1-0.3-0.2-0.3-0.3c0-0.3,0.1-0.4,0.3-0.3l1.4,0.2c0.8,0.1,1.6,0.2,2.4,0.2c0.3,0,0.6-0.1,1.1-0.3c0.1-0.1,0.2-0.1,0.2-0.1
			c0.1,0,0.2,0.1,0.2,0.2c0,0.1,0,0.2-0.1,0.3c-0.3,0.3-0.5,0.7-0.5,1.3v5c0,0.7,0.2,1.1,0.6,1.1c0.3,0,0.4,0,0.5,0
			c0.2-0.1,0.4-0.2,0.4-0.2C71.4,18.5,71.5,18.6,71.5,18.8z"/>
		<path fill="#3D3D3E" d="M77.1,12.3c-0.7,0.9-1.1,1.4-1.1,1.4c0,0-0.1-0.1-0.3-0.4c-0.1-0.3-0.3-0.4-0.3-0.5
			c-0.2-0.2-0.4-0.3-0.5-0.3c-0.3,0-0.4,0.1-0.4,0.4v5.4c0,0.2,0.1,0.4,0.2,0.6c0.2,0.2,0.4,0.2,0.6,0.2c0.1,0,0.2-0.1,0.3-0.2
			l0.7-0.7c0.1-0.1,0.1-0.1,0.2-0.1c0.1,0,0.2,0.1,0.2,0.2c0,0.1,0,0.1-0.1,0.2l-1.7,1.4c-0.1,0.1-0.2,0.1-0.3,0.1
			c0,0-0.1,0-0.2-0.1c-0.4-0.3-0.9-0.6-1.7-0.9c-0.2-0.1-0.3-0.2-0.3-0.2c0,0,0.1-0.1,0.2-0.3c0.3-0.3,0.4-0.6,0.4-1.2v-4.6
			c0-0.1,0-0.2-0.1-0.5c-0.1-0.2-0.1-0.4-0.1-0.4c-0.1-0.1-0.3-0.2-0.4-0.2c-0.3,0-0.4,0-0.4-0.1c0,0,0,0,0,0c0,0,0,0,0,0
			c0-0.1,0-0.1,0.1-0.2c0,0,0.3-0.2,0.9-0.7c0.1-0.1,0.2-0.1,0.3-0.1c0.1,0,0.2,0.1,0.3,0.2l0.8,0.9c0.1,0.1,0.2,0.2,0.3,0.2
			c0.1,0,0.2-0.1,0.3-0.2l0.4-0.6c0.3-0.3,0.4-0.5,0.5-0.5c0.1,0,0.2,0.2,0.5,0.5C76.8,11.9,77.1,12.2,77.1,12.3z"/>
		<path fill="#3D3D3E" d="M82.4,19.1c0,0.1,0,0.2-0.1,0.2l-1,0.7c-0.1,0.1-0.2,0.1-0.2,0.1c-0.1,0-0.1,0-0.2-0.1l-1.4-0.9
			c-0.1-0.1-0.1-0.1-0.1-0.3c0-0.1,0-0.2,0.1-0.2l0.1-0.1c0.2-0.2,0.3-0.5,0.3-0.9V9.6c0-0.5-0.1-0.8-0.3-1.1
			c-0.3-0.4-0.6-0.7-0.7-0.8c-0.1-0.1-0.1-0.2-0.1-0.3c0-0.2,0.1-0.3,0.3-0.3h0.1l0.8,0.2l1.4-0.5c0.1,0,0.1,0,0.2,0
			c0.2,0,0.3,0.1,0.3,0.3c0,0.1-0.1,0.2-0.2,0.3c-0.2,0.2-0.3,0.3-0.3,0.5c0,0.1,0,0.3,0,0.6v9.2c0,0.5,0.1,0.8,0.4,0.9l0.6,0.4
			C82.3,18.9,82.4,19,82.4,19.1z M87.2,18.8c0,0.1-0.1,0.1-0.2,0.3c-0.5,0.4-0.9,0.7-1.3,0.9c-0.2,0.1-0.3,0.2-0.4,0.2
			c-0.1,0-0.1,0-0.2-0.1c-0.1-0.1-0.3-0.4-0.5-1L84,16.9c-0.1-0.4-0.3-0.6-0.6-0.6c-0.4,0-0.6-0.2-0.6-0.6c0-0.2,0.1-0.4,0.3-0.5
			l1.3-0.8c0.3-0.2,0.4-0.3,0.4-0.5c0-0.1,0-0.2-0.1-0.3c-0.3-0.5-0.7-1.1-1.1-1.8c-0.1-0.1-0.2-0.2-0.5-0.2c-0.1,0-0.2,0-0.2,0.1
			L82.4,12C82.3,12,82.2,12,82,12c-0.1-0.1-0.2-0.1-0.2-0.2c0,0,0-0.1,0.1-0.1c0.1-0.1,0.2-0.2,0.3-0.3l1.4-0.7
			c0.2-0.1,0.3-0.1,0.5-0.1c0.2,0,0.4,0.1,0.6,0.4l1.4,2.4c0.1,0.1,0.1,0.2,0.1,0.2c0,0.1-0.1,0.3-0.4,0.5L84.7,15l0.9,3.4
			c0.1,0.4,0.3,0.6,0.6,0.6c0,0,0,0,0.1,0c0,0,0,0,0,0c0.2,0,0.4-0.1,0.7-0.2c0,0,0.1,0,0.1,0C87.1,18.6,87.2,18.7,87.2,18.8z"/>
		<path fill="#3D3D3E" d="M98.2,17.7c0,0.3,0,0.4-0.1,0.5c-0.1,0.1-0.2,0.2-0.4,0.3c-0.4,0.2-0.9,0.5-1.3,0.7
			c-0.5,0.3-0.9,0.6-1.2,0.9c-0.1,0.1-0.2,0.1-0.2,0.1c-0.1,0-0.2,0-0.2-0.1c-0.9-1-1.8-1.5-2.6-1.5c-0.5,0-0.7-0.1-0.7-0.3
			c0-0.1,0.1-0.2,0.3-0.4c0.2-0.2,0.3-0.3,0.3-0.3c0.1-0.2,0.2-0.5,0.2-1.1v-7c0-0.5-0.1-0.8-0.3-1.1c-0.3-0.4-0.6-0.7-0.7-0.8
			c-0.1-0.1-0.1-0.2-0.1-0.3c0-0.2,0.1-0.3,0.3-0.3c0,0,0,0,0.1,0c0,0,0.1,0,0.1,0l0.8,0.2l1.4-0.5c0.1,0,0.1,0,0.2,0
			c0.2,0,0.3,0.1,0.3,0.3c0,0.1-0.1,0.2-0.2,0.3c-0.2,0.2-0.3,0.3-0.3,0.5c0,0.1,0,0.3,0,0.6v2.8c0,0.4,0.2,0.6,0.7,0.6
			c0.1,0,0.2,0,0.4-0.1l1.8-0.9c0.2-0.1,0.3-0.1,0.4-0.1c0.1,0,0.1,0,0.2,0.1c0.6,0.4,0.9,1.2,0.9,2.2V17.7z M96.7,18v-5.4
			c0-0.5-0.2-0.7-0.6-0.7c-0.1,0-0.2,0-0.4,0.1L94,12.8c-0.2,0.1-0.4,0.3-0.4,0.6v4.4c0,0.1,0.1,0.2,0.2,0.4
			c0.1,0.1,0.3,0.2,0.5,0.3l1.7,0.3c0,0,0.1,0,0.1,0c0,0,0.1,0,0.1,0C96.5,18.7,96.7,18.5,96.7,18z"/>
		<path fill="#3D3D3E" d="M107.3,18.8c0,0.1,0,0.2-0.1,0.2c-0.4,0.2-0.9,0.6-1.5,1c-0.1,0.1-0.2,0.1-0.2,0.1c-0.1,0-0.2,0-0.2-0.1
			l-1.3-1.4l-1.9,1.4c-0.1,0.1-0.1,0.1-0.2,0.1c-0.1,0-0.2,0-0.2-0.1l-1.7-1.3c-0.1-0.1-0.1-0.2-0.1-0.3c0-0.1,0-0.2,0.1-0.2
			l0.1-0.1c0.2-0.2,0.3-0.5,0.3-0.9V16c0-0.1,0-0.3-0.1-0.4c0-0.2-0.1-0.3-0.1-0.4c0-0.3,0.1-0.5,0.2-0.6l1.4-0.5c0.1,0,0.1,0,0.2,0
			c0.2,0,0.3,0.1,0.3,0.3c0,0.1-0.1,0.2-0.2,0.3c-0.2,0.2-0.3,0.4-0.4,0.5s-0.1,0.3-0.1,0.6V18c0,0.2,0.1,0.4,0.3,0.5l0.3,0.2
			c0.1,0.1,0.1,0.1,0.2,0.1c0.1,0,0.1,0,0.2-0.1l1-0.6c0.3-0.1,0.4-0.3,0.4-0.6v-4.2c0-0.5-0.2-0.9-0.7-1l-2.5-1.1
			c-0.2-0.1-0.3-0.2-0.3-0.3c0-0.3,0.1-0.4,0.3-0.3l1.4,0.2c0.8,0.1,1.6,0.2,2.4,0.2c0.3,0,0.6-0.1,1.1-0.3c0.1-0.1,0.2-0.1,0.2-0.1
			c0.1,0,0.2,0.1,0.2,0.2c0,0.1,0,0.2-0.1,0.3c-0.3,0.3-0.5,0.7-0.5,1.3v5c0,0.7,0.2,1.1,0.6,1.1c0.3,0,0.4,0,0.5,0
			c0.2-0.1,0.4-0.2,0.4-0.2C107.2,18.5,107.3,18.6,107.3,18.8z"/>
		<path fill="#3D3D3E" d="M112.8,12.3c-0.7,0.9-1.1,1.4-1.1,1.4c0,0-0.1-0.1-0.3-0.4c-0.1-0.3-0.3-0.4-0.3-0.5
			c-0.2-0.2-0.4-0.3-0.5-0.3c-0.3,0-0.4,0.1-0.4,0.4v5.4c0,0.2,0.1,0.4,0.2,0.6c0.2,0.2,0.4,0.2,0.6,0.2c0.1,0,0.2-0.1,0.3-0.2
			l0.7-0.7c0.1-0.1,0.1-0.1,0.2-0.1c0.1,0,0.2,0.1,0.2,0.2c0,0.1,0,0.1-0.1,0.2l-1.7,1.4c-0.1,0.1-0.2,0.1-0.3,0.1
			c0,0-0.1,0-0.2-0.1c-0.4-0.3-0.9-0.6-1.7-0.9c-0.2-0.1-0.3-0.2-0.3-0.2c0,0,0.1-0.1,0.2-0.3c0.3-0.3,0.4-0.6,0.4-1.2v-4.6
			c0-0.1,0-0.2-0.1-0.5c-0.1-0.2-0.1-0.4-0.1-0.4c-0.1-0.1-0.3-0.2-0.4-0.2c-0.3,0-0.4,0-0.4-0.1c0,0,0,0,0,0c0,0,0,0,0,0
			c0-0.1,0-0.1,0.1-0.2c0,0,0.3-0.2,0.9-0.7c0.1-0.1,0.2-0.1,0.3-0.1c0.1,0,0.2,0.1,0.3,0.2l0.8,0.9c0.1,0.1,0.2,0.2,0.3,0.2
			c0.1,0,0.2-0.1,0.3-0.2l0.4-0.6c0.3-0.3,0.4-0.5,0.5-0.5c0.1,0,0.2,0.2,0.5,0.5C112.6,11.9,112.8,12.2,112.8,12.3z"/>
		<path fill="#3D3D3E" d="M121.1,17.7c0,0.3,0,0.4-0.1,0.5c-0.1,0.1-0.2,0.2-0.4,0.3c-0.4,0.2-0.9,0.5-1.3,0.7
			c-0.5,0.3-0.9,0.6-1.2,0.9c-0.1,0.1-0.2,0.1-0.2,0.1c-0.1,0-0.2,0-0.2-0.1c-0.9-1-1.8-1.5-2.6-1.5c-0.5,0-0.7-0.1-0.7-0.3
			c0-0.1,0.1-0.2,0.3-0.4c0.2-0.2,0.3-0.3,0.3-0.3c0.1-0.2,0.2-0.5,0.2-1.1v-7c0-0.5-0.1-0.8-0.3-1.1c-0.3-0.4-0.6-0.7-0.7-0.8
			c-0.1-0.1-0.1-0.2-0.1-0.3c0-0.2,0.1-0.3,0.3-0.3c0,0,0,0,0.1,0c0,0,0.1,0,0.1,0l0.8,0.2l1.4-0.5c0.1,0,0.1,0,0.2,0
			c0.2,0,0.3,0.1,0.3,0.3c0,0.1-0.1,0.2-0.2,0.3c-0.2,0.2-0.3,0.3-0.3,0.5c0,0.1,0,0.3,0,0.6v2.8c0,0.4,0.2,0.6,0.7,0.6
			c0.1,0,0.2,0,0.4-0.1l1.8-0.9c0.2-0.1,0.3-0.1,0.4-0.1c0.1,0,0.1,0,0.2,0.1c0.6,0.4,0.9,1.2,0.9,2.2V17.7z M119.5,18v-5.4
			c0-0.5-0.2-0.7-0.6-0.7c-0.1,0-0.2,0-0.4,0.1l-1.6,0.8c-0.2,0.1-0.4,0.3-0.4,0.6v4.4c0,0.1,0.1,0.2,0.2,0.4
			c0.1,0.1,0.3,0.2,0.5,0.3l1.7,0.3c0,0,0.1,0,0.1,0c0,0,0.1,0,0.1,0C119.3,18.7,119.5,18.5,119.5,18z"/>
		<path fill="#3D3D3E" d="M127.9,18.4c0,0.1-0.1,0.1-0.2,0.2l-2,1.4c-0.3,0.2-0.4,0.3-0.4,0.3c-0.1,0-0.3-0.1-0.6-0.2
			c-0.7-0.3-1.2-0.5-1.5-0.6c-0.3-0.1-0.5-0.1-0.5-0.2c0,0,0.1-0.1,0.2-0.3c0.2-0.3,0.3-0.8,0.3-1.4l0.1-5.4c0-0.1,0-0.2,0.1-0.3
			l1.4-0.8l0.5-0.3c0.1,0,0.2,0,0.2,0.1l2,1.9c0.2,0.2,0.3,0.4,0.3,0.6c0,0.2-0.1,0.4-0.3,0.6l-1.1,1.3c-0.1,0.2-0.2,0.3-0.3,0.3
			c0,0-0.1,0-0.1,0c-0.1-0.1-0.2-0.1-0.2-0.2c0,0,0-0.1,0-0.1c0,0,0-0.1,0.1-0.1c0-0.1,0-0.1,0-0.1l0.4-0.4c0.1-0.1,0.1-0.2,0.1-0.4
			c0-0.1,0-0.2-0.1-0.4c-0.1-0.1-0.4-0.5-1.1-1.2c-0.1-0.1-0.2-0.1-0.3-0.1c-0.3,0-0.5,0.3-0.5,0.8v4.2c0,0.4,0,0.6,0,0.7
			c0,0.2,0.2,0.4,0.3,0.5c0.5,0.3,0.8,0.4,1.1,0.4c0.1,0,0.3,0,0.3-0.1l1.1-0.7c0.1-0.1,0.2-0.1,0.3-0.1
			C127.8,18.1,127.9,18.2,127.9,18.4z"/>
		<path fill="#3D3D3E" d="M133.9,12.3c-0.7,0.9-1.1,1.4-1.1,1.4c0,0-0.1-0.1-0.3-0.4c-0.1-0.3-0.3-0.4-0.3-0.5
			c-0.2-0.2-0.4-0.3-0.5-0.3c-0.3,0-0.4,0.1-0.4,0.4v5.4c0,0.2,0.1,0.4,0.2,0.6c0.2,0.2,0.4,0.2,0.6,0.2c0.1,0,0.2-0.1,0.3-0.2
			l0.7-0.7c0.1-0.1,0.1-0.1,0.2-0.1c0.1,0,0.2,0.1,0.2,0.2c0,0.1,0,0.1-0.1,0.2l-1.7,1.4c-0.1,0.1-0.2,0.1-0.3,0.1
			c0,0-0.1,0-0.2-0.1c-0.4-0.3-0.9-0.6-1.7-0.9c-0.2-0.1-0.3-0.2-0.3-0.2c0,0,0.1-0.1,0.2-0.3c0.3-0.3,0.4-0.6,0.4-1.2v-4.6
			c0-0.1,0-0.2-0.1-0.5c-0.1-0.2-0.1-0.4-0.1-0.4c-0.1-0.1-0.3-0.2-0.4-0.2c-0.3,0-0.4,0-0.4-0.1c0,0,0,0,0,0c0,0,0,0,0,0
			c0-0.1,0-0.1,0.1-0.2c0,0,0.3-0.2,0.9-0.7c0.1-0.1,0.2-0.1,0.3-0.1c0.1,0,0.2,0.1,0.3,0.2l0.8,0.9c0.1,0.1,0.2,0.2,0.3,0.2
			c0.1,0,0.2-0.1,0.3-0.2l0.4-0.6c0.3-0.3,0.4-0.5,0.5-0.5c0.1,0,0.2,0.2,0.5,0.5C133.6,11.9,133.9,12.2,133.9,12.3z"/>
		<path fill="#3D3D3E" d="M145.7,13.2l-0.3,4.7c0,0.2-0.1,0.4-0.3,0.5c-0.3,0.2-0.7,0.5-1.1,1s-0.6,0.7-0.8,0.7s-0.2,0.1-0.2,0.1
			c0,0-0.2-0.1-0.4-0.4c-0.2-0.2-0.5-0.4-0.6-0.4s-0.3,0.2-0.4,0.6c-0.1,0.3-0.1,0.6-0.1,1c0,0.5,0.1,0.8,0.3,0.9
			c0.3,0.1,0.7,0.4,1.2,0.7c0.1,0.1,0.1,0.1,0.1,0.2c0,0.1,0,0.2-0.1,0.2s-0.2,0-0.4-0.1c-0.6-0.3-1.1-0.4-1.7-0.4
			c-0.5,0-1,0.1-1.5,0.3c-0.3,0.1-0.4,0.1-0.4,0.1c0,0,0,0-0.1-0.1c-0.1-0.2-0.1-0.2-0.1-0.1c0-0.1,0.1-0.1,0.2-0.2l0.8-0.7
			c0.2-0.2,0.3-0.4,0.3-0.7v-2.3c0-0.3-0.1-0.4-0.4-0.4h-0.9c-0.3,0-0.4-0.1-0.4-0.4c0-0.3,0.1-0.4,0.4-0.4h0.8
			c0.3,0,0.5-0.3,0.5-0.9v-3.6c0-0.2-0.1-0.4-0.3-0.7c-0.2-0.3-0.4-0.4-0.7-0.4c-0.1,0-0.2,0-0.4,0.1c-0.1,0-0.1,0.1-0.2,0.1
			c-0.2,0-0.3-0.1-0.3-0.2c0-0.1,0-0.2,0.1-0.3l0.9-0.8c0.2-0.1,0.3-0.2,0.5-0.2c0.1,0,0.3,0.1,0.6,0.3l0.8,0.8
			c0.2,0.2,0.3,0.2,0.4,0.2c0.1,0,0.3-0.1,0.5-0.2l1.6-0.9c0.2-0.1,0.4-0.2,0.6-0.2c0.2,0,0.5,0.2,0.8,0.5c0.5,0.5,0.7,1.1,0.8,1.8
			C145.7,13.1,145.7,13.2,145.7,13.2z M144.3,17.9v-5.3c0-0.4-0.2-0.6-0.7-0.6c0,0-0.1,0-0.3,0.1l-1.5,0.7c-0.2,0.1-0.4,0.3-0.4,0.6
			v4.2c0,0.4,0.2,0.6,0.7,0.7l1.5,0.3c0,0,0.1,0,0.1,0C144.1,18.5,144.3,18.3,144.3,17.9z"/>
		<path fill="#3D3D3E" d="M153.5,18c0,1.5-0.5,2.7-1.4,3.4c-0.7,0.5-1.5,0.9-2.3,1.1c-0.6,0.1-0.9,0.1-0.9-0.1
			c0-0.1,0.1-0.2,0.3-0.2c0.4-0.2,0.8-0.4,1.3-0.7c0.6-0.4,1-0.7,1.2-1c0.4-0.5,0.5-1.5,0.5-2.9v-4.9c0-0.4-0.2-0.6-0.7-0.6
			c-0.1,0-0.3,0-0.4,0.1l-1.5,0.8c-0.2,0.1-0.4,0.3-0.4,0.6v4.5c0,0.4,0.1,0.7,0.3,0.9l0.1,0.1c0.1,0.1,0.1,0.2,0.1,0.3
			c0,0.1,0,0.2-0.1,0.2l-0.9,0.6c-0.1,0.1-0.2,0.1-0.2,0.1c-0.1,0-0.1,0-0.2-0.1l-0.9-0.6c-0.1-0.1-0.1-0.2-0.1-0.3
			c0-0.1,0-0.2,0.1-0.2l0.1-0.1c0.2-0.2,0.3-0.5,0.3-0.9V9.7c0-0.5-0.1-0.8-0.3-1.1c-0.3-0.4-0.6-0.7-0.7-0.8
			c-0.1-0.1-0.1-0.2-0.1-0.3c0-0.2,0.1-0.3,0.3-0.3h0.1l0.8,0.2l1.4-0.5c0.1,0,0.1,0,0.2,0c0.2,0,0.3,0.1,0.3,0.3
			c0,0.1-0.1,0.2-0.2,0.3c-0.2,0.2-0.3,0.3-0.3,0.5c0,0.1,0,0.3,0,0.6v3.8l2.4-1.4c0.3-0.1,0.5-0.2,0.6-0.2c0.2,0,0.3,0.1,0.5,0.2
			c0.5,0.5,0.8,1.3,0.8,2.3V18z"/>
		<path fill="#3D3D3E" d="M161.4,18c0,0.2-0.1,0.3-0.4,0.5c-0.6,0.4-1.3,1-1.8,1.7c-0.1,0.1-0.2,0.1-0.2,0.1c-0.1,0-0.2,0-0.2-0.1
			c-0.8-0.8-1.7-1.3-2.7-1.4c-0.1,0-0.2,0-0.3,0c-0.1,0-0.2-0.1-0.2-0.3c0-0.1,0-0.1,0.1-0.1s0.2-0.1,0.2-0.2c0.1-0.2,0.1-0.5,0.1-1
			l0-4c0-0.7,0.2-1.1,0.5-1.2l1.4-0.9c0.2-0.1,0.3-0.2,0.4-0.2c0.1,0,0.1,0,0.2,0.1c0.8,0.5,1.5,0.8,2.4,1c0.3,0.1,0.4,0.1,0.4,0.1
			c0.1,0.1,0.2,0.3,0.2,0.6V18z M159.9,13.1c0-0.4-0.2-0.7-0.6-0.8l-1.1-0.3c-0.1,0-0.2,0-0.2,0c-0.2,0-0.3,0.1-0.5,0.2
			s-0.2,0.3-0.2,0.5l-0.1,4.9c0,0.4,0.2,0.6,0.7,0.8l1.1,0.3c0.1,0,0.1,0,0.2,0c0.4,0,0.6-0.2,0.6-0.6L159.9,13.1z"/>
		<path fill="#3D3D3E" d="M167.6,18.5C167.6,18.5,167.6,18.5,167.6,18.5l-1.9,1.6c-0.1,0.1-0.2,0.1-0.2,0.1c0,0-0.1,0-0.2-0.1
			l-1.1-0.7c-0.1-0.1-0.1-0.1-0.1-0.3c0-0.1,0-0.2,0.1-0.2l0.1-0.1c0.2-0.2,0.3-0.5,0.3-0.9v-5.4c0-0.6-0.2-0.9-0.6-1
			c-0.3-0.1-0.4-0.1-0.4-0.1c-0.2,0-0.3,0-0.3-0.1c0-0.1,0-0.2,0.1-0.2l1.9-2.3c0-0.1,0.1-0.1,0.1-0.2c0-0.1,0-0.1,0.1-0.1
			c0.1,0,0.1,0,0.2,0c0.1,0,0.1,0.2,0.1,0.4c0,0.1,0,0.3,0,0.5c0,0.2,0,0.3,0,0.4c0,0.2,0,0.4,0.1,0.6c0.1,0.3,0.3,0.4,0.6,0.4
			c0,0,0.1,0,0.2,0c0.1,0,0.3,0,0.4,0c0.1,0,0.2,0.1,0.2,0.2c0,0.2-0.1,0.3-0.3,0.3c-0.1,0-0.4,0.1-0.7,0.4
			c-0.1,0.1-0.2,0.3-0.3,0.7l-0.5,5.5c0,0.1,0.1,0.3,0.3,0.5s0.4,0.3,0.6,0.3c0.2,0,0.5-0.1,0.8-0.3c0.1-0.1,0.2-0.1,0.3-0.1
			C167.6,18.2,167.6,18.3,167.6,18.5z"/>
		<path fill="#3D3D3E" d="M174.8,18c0,0.2-0.1,0.3-0.4,0.5c-0.6,0.4-1.3,1-1.8,1.7c-0.1,0.1-0.2,0.1-0.2,0.1c-0.1,0-0.2,0-0.2-0.1
			c-0.8-0.8-1.7-1.3-2.7-1.4c-0.1,0-0.2,0-0.3,0c-0.1,0-0.2-0.1-0.2-0.3c0-0.1,0-0.1,0.1-0.1s0.2-0.1,0.2-0.2c0.1-0.2,0.1-0.5,0.1-1
			l0-4c0-0.7,0.2-1.1,0.5-1.2l1.4-0.9c0.2-0.1,0.3-0.2,0.4-0.2c0.1,0,0.1,0,0.2,0.1c0.8,0.5,1.5,0.8,2.4,1c0.3,0.1,0.4,0.1,0.4,0.1
			c0.1,0.1,0.2,0.3,0.2,0.6V18z M173.3,13.1c0-0.4-0.2-0.7-0.6-0.8l-1.1-0.3c-0.1,0-0.2,0-0.2,0c-0.2,0-0.3,0.1-0.5,0.2
			s-0.2,0.3-0.2,0.5l-0.1,4.9c0,0.4,0.2,0.6,0.7,0.8l1.1,0.3c0.1,0,0.1,0,0.2,0c0.4,0,0.6-0.2,0.6-0.6L173.3,13.1z"/>
		<path fill="#3D3D3E" d="M184.9,21.6c0,0.3-0.1,0.5-0.3,0.6l-1.9,1.2c-0.2,0.1-0.5,0.2-0.8,0.2c-0.2,0-0.6-0.1-1.2-0.4
			c-0.6-0.2-1.1-0.4-1.6-0.4c-0.3,0-0.9,0.1-1.6,0.4l-0.3,0.1c-0.1,0-0.1,0-0.1-0.1s-0.1-0.1-0.1-0.1c0,0,0,0,0.1-0.2l0.5-1
			c0.1-0.3,0.3-0.4,0.4-0.4c0,0,0.1,0,0.1,0c0.7,0.2,1.2,0.4,1.5,0.4c0.2,0,0.5,0,0.8,0c0.3,0,0.6,0,0.6,0c0.5,0,0.7,0.1,0.8,0.2
			c0.1,0.2,0.3,0.2,0.5,0.2c0.4,0,0.6-0.2,0.6-0.6c0-0.2-0.1-0.3-0.2-0.4l-1-1.1c-0.2-0.2-0.3-0.5-0.3-0.6v-6.2c0-0.6-0.2-0.9-0.5-1
			l-1.2-0.3c-0.3-0.1-0.4-0.1-0.4-0.1c-0.4,0-0.6,0.2-0.7,0.7l-0.2,5.3c0,0.1,0.1,0.3,0.3,0.6l0.4,0.5c0.1,0.1,0.2,0.3,0.2,0.4
			c0,0.4-0.2,0.6-0.6,0.6c-0.2,0-0.3-0.1-0.5-0.2l-0.7-0.7c-0.3-0.3-0.4-0.7-0.4-1.4v-5.2c0-0.2,0-0.4,0.1-0.4
			c0.1-0.1,0.3-0.2,0.6-0.4l2.1-0.9l0.5-0.2c0.1,0,0.2,0,0.2,0.1c0.2,0.2,0.5,0.3,1,0.5c0.6,0.2,1.1,0.3,1.6,0.3
			c0.3,0,0.6,0,0.8-0.1c0.1,0,0.2,0,0.2,0c0.1,0,0.2,0.1,0.2,0.3c0,0.3,0,0.5,0,0.6c0,0.2,0,0.2,0,0.2c0,0.3,0,0.4-0.1,0.4
			c0,0,0,0-0.1,0c-0.3-0.2-0.7-0.3-1-0.3c-0.3,0-0.4,0.3-0.4,0.8V19c0,0.2,0.1,0.4,0.2,0.6l1.3,1.7c0,0.1,0.1,0.1,0.2,0.1
			C184.8,21.4,184.9,21.5,184.9,21.6z"/>
		<path fill="#3D3D3E" d="M190.6,12.3c-0.7,0.9-1.1,1.4-1.1,1.4c0,0-0.1-0.1-0.3-0.4c-0.1-0.3-0.3-0.4-0.3-0.5
			c-0.2-0.2-0.4-0.3-0.5-0.3c-0.3,0-0.4,0.1-0.4,0.4v5.4c0,0.2,0.1,0.4,0.2,0.6c0.2,0.2,0.4,0.2,0.6,0.2c0.1,0,0.2-0.1,0.3-0.2
			l0.7-0.7c0.1-0.1,0.1-0.1,0.2-0.1c0.1,0,0.2,0.1,0.2,0.2c0,0.1,0,0.1-0.1,0.2l-1.7,1.4c-0.1,0.1-0.2,0.1-0.3,0.1
			c0,0-0.1,0-0.2-0.1c-0.4-0.3-0.9-0.6-1.7-0.9c-0.2-0.1-0.3-0.2-0.3-0.2c0,0,0.1-0.1,0.2-0.3c0.3-0.3,0.4-0.6,0.4-1.2v-4.6
			c0-0.1,0-0.2-0.1-0.5c-0.1-0.2-0.1-0.4-0.1-0.4c-0.1-0.1-0.3-0.2-0.4-0.2c-0.3,0-0.4,0-0.4-0.1c0,0,0,0,0,0c0,0,0,0,0,0
			c0-0.1,0-0.1,0.1-0.2c0,0,0.3-0.2,0.9-0.7c0.1-0.1,0.2-0.1,0.3-0.1c0.1,0,0.2,0.1,0.3,0.2l0.8,0.9c0.1,0.1,0.2,0.2,0.3,0.2
			c0.1,0,0.2-0.1,0.3-0.2l0.4-0.6c0.3-0.3,0.4-0.5,0.5-0.5c0.1,0,0.2,0.2,0.5,0.5C190.4,11.9,190.6,12.2,190.6,12.3z"/>
		<path fill="#3D3D3E" d="M199.5,18.8c0,0.1,0,0.2-0.1,0.2c-0.4,0.2-0.9,0.6-1.5,1c-0.1,0.1-0.2,0.1-0.2,0.1c-0.1,0-0.2,0-0.2-0.1
			l-1.3-1.4l-1.9,1.4c-0.1,0.1-0.1,0.1-0.2,0.1c-0.1,0-0.2,0-0.2-0.1l-1.7-1.3c-0.1-0.1-0.1-0.2-0.1-0.3c0-0.1,0-0.2,0.1-0.2
			l0.1-0.1c0.2-0.2,0.3-0.5,0.3-0.9V16c0-0.1,0-0.3-0.1-0.4c0-0.2-0.1-0.3-0.1-0.4c0-0.3,0.1-0.5,0.2-0.6L194,14c0.1,0,0.1,0,0.2,0
			c0.2,0,0.3,0.1,0.3,0.3c0,0.1-0.1,0.2-0.2,0.3c-0.2,0.2-0.3,0.4-0.4,0.5s-0.1,0.3-0.1,0.6V18c0,0.2,0.1,0.4,0.3,0.5l0.3,0.2
			c0.1,0.1,0.1,0.1,0.2,0.1c0.1,0,0.1,0,0.2-0.1l1-0.6c0.3-0.1,0.4-0.3,0.4-0.6v-4.2c0-0.5-0.2-0.9-0.7-1l-2.5-1.1
			c-0.2-0.1-0.3-0.2-0.3-0.3c0-0.3,0.1-0.4,0.3-0.3l1.4,0.2c0.8,0.1,1.6,0.2,2.4,0.2c0.3,0,0.6-0.1,1.1-0.3c0.1-0.1,0.2-0.1,0.2-0.1
			c0.1,0,0.2,0.1,0.2,0.2c0,0.1,0,0.2-0.1,0.3c-0.3,0.3-0.5,0.7-0.5,1.3v5c0,0.7,0.2,1.1,0.6,1.1c0.3,0,0.4,0,0.5,0
			c0.2-0.1,0.4-0.2,0.4-0.2C199.4,18.5,199.5,18.6,199.5,18.8z"/>
		<path fill="#3D3D3E" d="M207.6,13.2l-0.3,4.7c0,0.2-0.1,0.4-0.3,0.5c-0.3,0.2-0.7,0.5-1.1,1s-0.6,0.7-0.8,0.7s-0.2,0.1-0.2,0.1
			c0,0-0.2-0.1-0.4-0.4c-0.2-0.2-0.5-0.4-0.6-0.4s-0.3,0.2-0.4,0.6c-0.1,0.3-0.1,0.6-0.1,1c0,0.5,0.1,0.8,0.3,0.9
			c0.3,0.1,0.7,0.4,1.2,0.7c0.1,0.1,0.1,0.1,0.1,0.2c0,0.1,0,0.2-0.1,0.2s-0.2,0-0.4-0.1c-0.6-0.3-1.1-0.4-1.7-0.4
			c-0.5,0-1,0.1-1.5,0.3c-0.3,0.1-0.4,0.1-0.4,0.1c0,0,0,0-0.1-0.1c-0.1-0.2-0.1-0.2-0.1-0.1c0-0.1,0.1-0.1,0.2-0.2l0.8-0.7
			c0.2-0.2,0.3-0.4,0.3-0.7v-2.3c0-0.3-0.1-0.4-0.4-0.4h-0.9c-0.3,0-0.4-0.1-0.4-0.4c0-0.3,0.1-0.4,0.4-0.4h0.8
			c0.3,0,0.5-0.3,0.5-0.9v-3.6c0-0.2-0.1-0.4-0.3-0.7c-0.2-0.3-0.4-0.4-0.7-0.4c-0.1,0-0.2,0-0.4,0.1c-0.1,0-0.1,0.1-0.2,0.1
			c-0.2,0-0.3-0.1-0.3-0.2c0-0.1,0-0.2,0.1-0.3l0.9-0.8c0.2-0.1,0.3-0.2,0.5-0.2c0.1,0,0.3,0.1,0.6,0.3l0.8,0.8
			c0.2,0.2,0.3,0.2,0.4,0.2c0.1,0,0.3-0.1,0.5-0.2l1.6-0.9c0.2-0.1,0.4-0.2,0.6-0.2c0.2,0,0.5,0.2,0.8,0.5c0.5,0.5,0.7,1.1,0.8,1.8
			C207.6,13.1,207.6,13.2,207.6,13.2z M206.2,17.9v-5.3c0-0.4-0.2-0.6-0.7-0.6c0,0-0.1,0-0.3,0.1l-1.5,0.7c-0.2,0.1-0.4,0.3-0.4,0.6
			v4.2c0,0.4,0.2,0.6,0.7,0.7l1.5,0.3c0,0,0.1,0,0.1,0C206,18.5,206.2,18.3,206.2,17.9z"/>
		<path fill="#3D3D3E" d="M215.4,18c0,1.5-0.5,2.7-1.4,3.4c-0.7,0.5-1.5,0.9-2.3,1.1c-0.6,0.1-0.9,0.1-0.9-0.1
			c0-0.1,0.1-0.2,0.3-0.2c0.4-0.2,0.8-0.4,1.3-0.7c0.6-0.4,1-0.7,1.2-1c0.4-0.5,0.5-1.5,0.5-2.9v-4.9c0-0.4-0.2-0.6-0.7-0.6
			c-0.1,0-0.3,0-0.4,0.1l-1.5,0.8c-0.2,0.1-0.4,0.3-0.4,0.6v4.5c0,0.4,0.1,0.7,0.3,0.9l0.1,0.1c0.1,0.1,0.1,0.2,0.1,0.3
			c0,0.1,0,0.2-0.1,0.2l-0.9,0.6c-0.1,0.1-0.2,0.1-0.2,0.1c-0.1,0-0.1,0-0.2-0.1l-0.9-0.6c-0.1-0.1-0.1-0.2-0.1-0.3
			c0-0.1,0-0.2,0.1-0.2l0.1-0.1c0.2-0.2,0.3-0.5,0.3-0.9V9.7c0-0.5-0.1-0.8-0.3-1.1c-0.3-0.4-0.6-0.7-0.7-0.8
			c-0.1-0.1-0.1-0.2-0.1-0.3c0-0.2,0.1-0.3,0.3-0.3h0.1l0.8,0.2l1.4-0.5c0.1,0,0.1,0,0.2,0c0.2,0,0.3,0.1,0.3,0.3
			c0,0.1-0.1,0.2-0.2,0.3c-0.2,0.2-0.3,0.3-0.3,0.5c0,0.1,0,0.3,0,0.6v3.8l2.4-1.4c0.3-0.1,0.5-0.2,0.6-0.2c0.2,0,0.3,0.1,0.5,0.2
			c0.5,0.5,0.8,1.3,0.8,2.3V18z"/>
		<path fill="#3D3D3E" d="M222.4,18.4c0,0.1-0.1,0.1-0.2,0.2l-2,1.4c-0.3,0.2-0.4,0.3-0.4,0.3c-0.1,0-0.3-0.1-0.6-0.2
			c-0.7-0.3-1.2-0.5-1.5-0.6c-0.3-0.1-0.5-0.1-0.5-0.2c0,0,0.1-0.1,0.2-0.3c0.2-0.3,0.3-0.8,0.3-1.4l0.1-5.4c0-0.1,0-0.2,0.1-0.3
			l1.4-0.8l0.5-0.3c0.1,0,0.2,0,0.2,0.1l2,1.9c0.2,0.2,0.3,0.4,0.3,0.6c0,0.2-0.1,0.4-0.3,0.6l-1.1,1.3c-0.1,0.2-0.2,0.3-0.3,0.3
			c0,0-0.1,0-0.1,0c-0.1-0.1-0.2-0.1-0.2-0.2c0,0,0-0.1,0-0.1c0,0,0-0.1,0.1-0.1c0-0.1,0-0.1,0-0.1l0.4-0.4c0.1-0.1,0.1-0.2,0.1-0.4
			c0-0.1,0-0.2-0.1-0.4c-0.1-0.1-0.4-0.5-1.1-1.2c-0.1-0.1-0.2-0.1-0.3-0.1c-0.3,0-0.5,0.3-0.5,0.8v4.2c0,0.4,0,0.6,0,0.7
			c0,0.2,0.2,0.4,0.3,0.5c0.5,0.3,0.8,0.4,1.1,0.4c0.1,0,0.3,0,0.3-0.1l1.1-0.7c0.1-0.1,0.2-0.1,0.3-0.1
			C222.3,18.1,222.4,18.2,222.4,18.4z"/>
		<path fill="#3D3D3E" d="M228.4,12.3c-0.7,0.9-1.1,1.4-1.1,1.4c0,0-0.1-0.1-0.3-0.4c-0.1-0.3-0.3-0.4-0.3-0.5
			c-0.2-0.2-0.4-0.3-0.5-0.3c-0.3,0-0.4,0.1-0.4,0.4v5.4c0,0.2,0.1,0.4,0.2,0.6c0.2,0.2,0.4,0.2,0.6,0.2c0.1,0,0.2-0.1,0.3-0.2
			l0.7-0.7c0.1-0.1,0.1-0.1,0.2-0.1c0.1,0,0.2,0.1,0.2,0.2c0,0.1,0,0.1-0.1,0.2l-1.7,1.4c-0.1,0.1-0.2,0.1-0.3,0.1
			c0,0-0.1,0-0.2-0.1c-0.4-0.3-0.9-0.6-1.7-0.9c-0.2-0.1-0.3-0.2-0.3-0.2c0,0,0.1-0.1,0.2-0.3c0.3-0.3,0.4-0.6,0.4-1.2v-4.6
			c0-0.1,0-0.2-0.1-0.5c-0.1-0.2-0.1-0.4-0.1-0.4c-0.1-0.1-0.3-0.2-0.4-0.2c-0.3,0-0.4,0-0.4-0.1c0,0,0,0,0,0c0,0,0,0,0,0
			c0-0.1,0-0.1,0.1-0.2c0,0,0.3-0.2,0.9-0.7c0.1-0.1,0.2-0.1,0.3-0.1c0.1,0,0.2,0.1,0.3,0.2l0.8,0.9c0.1,0.1,0.2,0.2,0.3,0.2
			c0.1,0,0.2-0.1,0.3-0.2l0.4-0.6c0.3-0.3,0.4-0.5,0.5-0.5c0.1,0,0.2,0.2,0.5,0.5C228.1,11.9,228.4,12.2,228.4,12.3z"/>
	</g>
	<g>
		<polygon fill="#3D3D3E" points="19.8,28.8 10.5,28.8 2.9,23.3 0,14.4 2.9,5.5 10.5,0 19.8,0 27.4,5.5 30.3,14.4 27.4,23.3 		"/>
		<path fill="#FFFFFF" d="M16.8,18.5l-1.6,1c-0.1,0-0.2,0.1-0.3,0.1c-0.4,0-1.1-0.8-1.1-2.1v-4.3c0-0.2-0.1-0.5-0.4-0.5
			c0,0-0.1,0-0.2,0.1l-0.8,0.5c-0.1,0.1-0.2,0.2-0.2,0.5l0.1,3.9c0,0.3,0.2,0.6,0.4,0.8l0.1,0.1c0.1,0.1,0.1,0.1,0.1,0.2
			c0,0.1-0.1,0.1-0.2,0.2l-1.1,0.5c-0.1,0.1-0.2,0.1-0.3,0.1c-0.4,0-0.7-0.9-0.8-1.9L10,13.3c0-0.3,0-0.5-0.3-0.5c0,0-0.1,0-0.1,0.1
			l-0.7,0.5c-0.1,0.1-0.2,0.3-0.2,0.5v3.8c0,0.2,0,0.6,0.3,0.7l0.1,0.1c0.1,0.1,0.1,0.2,0.1,0.2c0,0.1,0,0.2-0.1,0.2l-1.2,0.5
			c-0.1,0-0.2,0.1-0.2,0.1c-0.1,0-0.2,0-0.3-0.1L6.3,19c-0.1,0-0.1-0.1-0.1-0.2c0-0.1,0-0.2,0.1-0.2l0.1-0.1
			c0.1-0.1,0.3-0.3,0.3-0.7v-3.8c0-0.2-0.2-0.6-0.7-0.6H5.6c-0.1,0-0.2-0.1-0.2-0.2c0-0.1,0-0.1,0.1-0.1l1.2-1
			c0.1-0.1,0.3-0.2,0.4-0.2s0.2,0,0.3,0.1l1.2,1l2.1-1.1c0.1,0,0.2-0.1,0.2-0.1c0.1,0,0.2,0.1,0.5,0.4l0.7,0.7l1.6-1
			c0.1-0.1,0.2-0.1,0.4-0.1c0.1,0,0.2,0.1,0.4,0.2c0,0,0.8,0.6,1.1,0.6c0.3,0,0.5,0.1,0.5,0.2c0,0.3-0.4,0.7-0.4,1l0,3.7
			c0,0.3,0,1.1,0.2,1.1c0.3,0,0.6-0.3,0.7-0.3c0.1,0,0.2,0.1,0.2,0.2C16.9,18.5,16.8,18.5,16.8,18.5z"/>
		<path fill="#FFFFFF" d="M23,18.3c-1.3,0.5-2,1-2.3,1.2c-0.1,0.1-0.2,0.1-0.2,0.1c-0.1,0-0.2-0.1-0.4-0.3c-0.9-0.8-1.5-1-2.2-1
			c-0.6,0-0.6-0.1-0.6-0.2c0-0.1,0.1-0.2,0.4-0.3c0.4-0.2,0.4-0.6,0.4-1.1v-5.8c0-0.4-0.1-0.7-0.2-0.8l-0.7-0.7c0,0-0.1-0.1-0.1-0.2
			c0-0.2,0.1-0.3,0.4-0.3L18.5,9l1.7-0.5c0,0,0,0,0.1,0c0.1,0,0.3,0.1,0.3,0.3c0,0.1,0,0.1-0.1,0.2C20.1,9.2,20,9.4,20,9.7l0,2.7
			c0,0.1,0.2,0.3,0.5,0.1l1.5-0.7c0.2-0.1,0.3-0.1,0.5-0.1c0.5,0,1.2,0.9,1.2,1.9v3.9C23.6,18,23.5,18.1,23,18.3z M21.4,13.3
			c0-0.4,0-0.5-0.2-0.5c0,0-0.1,0-0.2,0l-1,0.5c-0.2,0.1-0.3,0.3-0.3,0.5v3.9c0,0.2,0.1,0.4,0.4,0.5l0.7,0.1c0,0,0.2,0,0.3,0
			c0.1,0,0.3-0.1,0.3-0.5L21.4,13.3L21.4,13.3z"/>
	</g>
	<path fill="#3D3D3E" d="M241.7,28.7"/>
	<line fill="none" stroke="#3D3D3E" stroke-width="0.5" stroke-miterlimit="10" x1="40.2" y1="0" x2="40.2" y2="28.8"/>
</g>
</svg>
